HIERARCHY
ROOT Hips
{
	OFFSET 0.000000 0.000000 0.000000
	CHANNELS 6 Xposition Yposition Zposition Zrotation Yrotation Xrotation 
	JOINT LHipJoint
	{
		OFFSET 0.000000 0.000000 0.000000
		CHANNELS 3 Zrotation Yrotation Xrotation
		JOINT LeftUpLeg
		{
			OFFSET 1.363060 -1.794630 0.839290
			CHANNELS 3 Zrotation Yrotation Xrotation
			JOINT LeftLeg
			{
				OFFSET 2.448110 -6.726130 0.000000
				CHANNELS 3 Zrotation Yrotation Xrotation
				JOINT LeftFoot
				{
					OFFSET 2.562200 -7.039590 0.000000
					CHANNELS 3 Zrotation Yrotation Xrotation
					JOINT LeftToeBase
					{
						OFFSET 0.157640 -0.433110 2.322550
						CHANNELS 3 Zrotation Yrotation Xrotation
						End Site
						{
							OFFSET 0.000000 0.000000 0.000000
						}
					}
				}
			}
		}
	}
	JOINT RHipJoint
	{
		OFFSET 0.000000 0.000000 0.000000
		CHANNELS 3 Zrotation Yrotation Xrotation
		JOINT RightUpLeg
		{
			OFFSET -1.305520 -1.794630 0.839290
			CHANNELS 3 Zrotation Yrotation Xrotation
			JOINT RightLeg
			{
				OFFSET -2.542530 -6.985550 0.000000
				CHANNELS 3 Zrotation Yrotation Xrotation
				JOINT RightFoot
				{
					OFFSET -2.568260 -7.056230 0.000000
					CHANNELS 3 Zrotation Yrotation Xrotation
					JOINT RightToeBase
					{
						OFFSET -0.164730 -0.452590 2.363150
						CHANNELS 3 Zrotation Yrotation Xrotation
						End Site
						{
							OFFSET 0.000000 0.000000 0.000000
						}
					}
				}
			}
		}
	}
	JOINT LowerBack
	{
		OFFSET 0.000000 0.000000 0.000000
		CHANNELS 3 Zrotation Yrotation Xrotation
		JOINT Spine
		{
			OFFSET 0.028270 2.035590 -0.193380
			CHANNELS 3 Zrotation Yrotation Xrotation
			JOINT Spine1
			{
				OFFSET 0.056720 2.048850 -0.042750
				CHANNELS 3 Zrotation Yrotation Xrotation
				JOINT Neck
				{
					OFFSET 0.000000 0.000000 0.000000
					CHANNELS 3 Zrotation Yrotation Xrotation
					JOINT Neck1
					{
						OFFSET -0.054170 1.746240 0.172020
						CHANNELS 3 Zrotation Yrotation Xrotation
						JOINT Head
						{
							OFFSET 0.104070 1.761360 -0.123970
							CHANNELS 3 Zrotation Yrotation Xrotation
							End Site
							{
								OFFSET 0.000000 0.000000 0.000000
							}
						}
					}
				}
				JOINT LeftShoulder
				{
					OFFSET 0.000000 0.000000 0.000000
					CHANNELS 3 Zrotation Yrotation Xrotation
					JOINT LeftArm
					{
						OFFSET 3.362410 1.200890 -0.311210
						CHANNELS 3 Zrotation Yrotation Xrotation
						JOINT LeftForeArm
						{
							OFFSET 4.983000 -0.000000 -0.000000
							CHANNELS 3 Zrotation Yrotation Xrotation
							JOINT LeftHand
							{
								OFFSET 3.483560 -0.000000 -0.000000
								CHANNELS 3 Zrotation Yrotation Xrotation
								JOINT LeftFingerBase
								{
									OFFSET 0.000000 0.000000 0.000000
									CHANNELS 3 Zrotation Yrotation Xrotation
									JOINT LeftHandIndex1
									{
										OFFSET 0.715260 -0.000000 -0.000000
										CHANNELS 3 Zrotation Yrotation Xrotation
										End Site
										{
											OFFSET 0.000000 0.000000 0.000000
										}
									}
								}
								JOINT LThumb
								{
									OFFSET 0.000000 0.000000 0.000000
									CHANNELS 3 Zrotation Yrotation Xrotation
									End Site
									{
										OFFSET 0.000000 0.000000 0.000000
									}
								}
							}
						}
					}
				}
				JOINT RightShoulder
				{
					OFFSET 0.000000 0.000000 0.000000
					CHANNELS 3 Zrotation Yrotation Xrotation
					JOINT RightArm
					{
						OFFSET -3.136600 1.374050 -0.404650
						CHANNELS 3 Zrotation Yrotation Xrotation
						JOINT RightForeArm
						{
							OFFSET -5.241900 -0.000000 -0.000000
							CHANNELS 3 Zrotation Yrotation Xrotation
							JOINT RightHand
							{
								OFFSET -3.444170 -0.000000 -0.000000
								CHANNELS 3 Zrotation Yrotation Xrotation
								JOINT RightFingerBase
								{
									OFFSET 0.000000 0.000000 0.000000
									CHANNELS 3 Zrotation Yrotation Xrotation
									JOINT RightHandIndex1
									{
										OFFSET -0.622530 -0.000000 -0.000000
										CHANNELS 3 Zrotation Yrotation Xrotation
										End Site
										{
											OFFSET 0.000000 0.000000 0.000000
										}
									}
								}
								JOINT RThumb
								{
									OFFSET 0.000000 0.000000 0.000000
									CHANNELS 3 Zrotation Yrotation Xrotation
									End Site
									{
										OFFSET 0.000000 0.000000 0.000000
									}
								}
							}
						}
					}
				}
			}
		}
	}
}
MOTION
Frames: 6
Frame Time: 0.008333
-11.412334 16.681380 -2.907629 2.158600 81.652010 19.205380 -9.855481 -0.873649 1.021136 -7.259034 3.773215 -45.528007 -1.857153 0.860070 19.550161 0.956307 6.002901 10.157650 2.197900 0.000000 -34.740800 10.331132 -2.656095 -1.515966 -0.497336 -2.377600 -0.639063 1.178224 -2.168258 27.485214 0.861271 10.935552 6.783766 2.356699 0.000000 -88.710200 -7.157590 0.376615 0.846901 -2.132484 0.785706 -2.390209 -5.782839 0.740356 2.413667 6.603714 -6.488629 -7.058079 -3.186099 -0.243616 0.004461 0.000000 0.000000 0.000000 -8.251271 16.794035 1.494572 -64.304208 11.865733 0.965905 -4.656576 -23.485900 -0.027664 -12.931558 5.264679 -0.601057 -0.109177 -0.077781 -0.000000 0.000000 0.000000 0.000000 0.000000 0.000000 0.000000 12.224605 -2.339473 0.919445 47.039989 20.609427 22.024494 1.916635 58.208693 0.025039 11.989781 9.773762 1.056600 -0.083797 -0.190017 0.000000 0.000000 0.000000 0.000000 0.000000 0.000000 0.000000 
-11.252517 16.702047 -2.926635 4.050377 81.511281 21.085253 -9.822295 -0.849680 0.913894 -7.717946 3.775121 -45.264974 -1.863046 0.895075 20.536590 0.994393 6.268804 9.253135 2.191100 0.000000 -34.271300 10.519361 -2.694937 -1.495119 -1.109583 -2.538422 -1.976038 0.907869 -2.402996 30.160864 0.741748 10.862959 8.739348 2.740300 0.000000 -88.672900 -7.574167 0.264984 0.875879 -2.222968 0.696497 -2.394468 -5.855944 0.650312 2.374420 6.607608 -6.474104 -6.955277 -3.237538 -0.248447 0.027132 0.000000 0.000000 0.000000 -8.216423 16.385493 1.498402 -64.243372 11.298967 1.264190 -4.662120 -23.269202 -0.026883 -12.847994 5.254055 -0.595642 -0.109073 -0.075015 -0.000000 0.000000 0.000000 0.000000 0.000000 0.000000 0.000000 12.403125 -2.431810 0.863288 48.047350 19.923815 22.172885 1.977687 57.487157 0.024805 12.074306 9.708230 1.056015 -0.080209 -0.183980 0.000000 0.000000 0.000000 0.000000 0.000000 0.000000 0.000000 
-11.097258 16.725026 -2.946905 5.413751 81.334261 22.451831 -9.781738 -0.821536 0.824117 -8.076141 3.720886 -44.910760 -1.868337 0.912232 21.363054 1.038230 6.545105 8.200370 2.162800 -0.000000 -34.008999 10.698438 -2.697708 -1.472761 -1.600464 -2.616865 -3.398711 0.623431 -2.615000 32.926771 0.582920 10.545143 10.828847 3.087600 -0.000000 -87.915901 -7.900216 0.170296 0.904918 -2.296495 0.619149 -2.398004 -5.924959 0.572270 2.335890 6.571382 -6.455492 -6.850536 -3.287832 -0.253171 0.050169 0.000000 0.000000 0.000000 -8.187337 15.970213 1.503405 -64.166014 10.663154 1.614531 -4.665695 -23.091678 -0.026026 -12.768063 5.237661 -0.589723 -0.108996 -0.071922 -0.000000 0.000000 0.000000 0.000000 0.000000 0.000000 0.000000 12.534158 -2.516961 0.807395 49.046377 19.239472 22.300844 2.037359 56.749154 0.024508 12.162225 9.639073 1.055329 -0.076933 -0.177975 0.000000 0.000000 0.000000 0.000000 0.000000 0.000000 0.000000 
-10.946500 16.750014 -2.968516 6.257398 81.118923 23.307599 -9.742197 -0.790721 0.747864 -8.338780 3.640453 -44.473522 -1.873070 0.914839 22.024736 1.087520 6.825899 7.077445 2.115800 -0.000001 -33.912900 10.859874 -2.663148 -1.448207 -1.962356 -2.608380 -4.881460 0.333503 -2.799255 35.744025 0.386405 9.959453 13.010067 3.353800 -0.000000 -86.363200 -8.136541 0.093151 0.935434 -2.352791 0.554344 -2.400933 -5.989811 0.506885 2.297348 6.499783 -6.428726 -6.745391 -3.336633 -0.257739 0.073292 0.000000 0.000000 0.000000 -8.164356 15.554594 1.510167 -64.073324 9.967593 1.997919 -4.667658 -22.969589 -0.025112 -12.695304 5.216663 -0.583500 -0.108987 -0.068532 -0.000000 0.000000 0.000000 0.000000 0.000000 0.000000 0.000000 12.620942 -2.588736 0.753546 50.025068 18.556124 22.414023 2.094994 56.005665 0.024151 12.253500 9.566747 1.054540 -0.074007 -0.172045 0.000000 0.000000 0.000000 0.000000 0.000000 0.000000 0.000000 
-10.800040 16.776734 -2.991226 6.658055 80.870397 23.722126 -9.708711 -0.759063 0.679248 -8.521684 3.559784 -43.958112 -1.877124 0.905291 22.519722 1.141359 7.111150 5.959970 2.057000 -0.000001 -33.935900 11.000671 -2.593003 -1.422262 -2.202792 -2.523826 -6.400526 0.048975 -2.954179 38.573876 0.156416 9.099483 15.219831 3.490900 -0.000000 -84.004300 -8.293521 0.030612 0.971786 -2.393490 0.499822 -2.401550 -6.050721 0.452029 2.262491 6.403747 -6.397302 -6.645653 -3.383676 -0.262045 0.094881 0.000000 0.000000 0.000000 -8.141013 15.160806 1.518890 -63.964717 9.196180 2.408514 -4.669148 -22.900884 -0.024125 -12.630384 5.189020 -0.576972 -0.109114 -0.064785 -0.000000 0.000000 0.000000 0.000000 0.000000 0.000000 0.000000 12.676886 -2.650598 0.702141 50.967948 17.884780 22.522768 2.149616 55.267523 0.023729 12.346881 9.492032 1.053548 -0.071479 -0.166209 0.000000 0.000000 0.000000 0.000000 0.000000 0.000000 0.000000 
-10.657580 16.804969 -3.014829 6.676363 80.594838 23.747922 -9.685039 -0.727602 0.612595 -8.637279 3.505339 -43.372630 -1.879857 0.886700 22.855317 1.197952 7.398128 4.911276 1.993400 0.000000 -34.028700 11.118714 -2.490764 -1.396560 -2.326868 -2.376794 -7.930924 -0.219642 -3.080370 41.375464 -0.100563 7.963705 17.378844 3.452200 0.000000 -80.944900 -8.376637 -0.020331 1.019049 -2.419285 0.452953 -2.399178 -6.108118 0.405132 2.230289 6.291599 -6.359035 -6.552116 -3.428645 -0.266050 0.114786 0.000000 0.000000 0.000000 -8.115817 14.790859 1.530427 -63.838257 8.360204 2.829311 -4.670875 -22.897522 -0.023083 -12.575757 5.153890 -0.570139 -0.109429 -0.060724 -0.000000 0.000000 0.000000 0.000000 0.000000 0.000000 0.000000 12.708950 -2.700449 0.654099 51.868311 17.223580 22.632134 2.200760 54.543748 0.023238 12.441572 9.415716 1.052352 -0.069348 -0.160485 0.000000 0.000000 0.000000 0.000000 0.000000 0.000000 0.000000 
